<svg xmlns="http://www.w3.org/2000/svg" viewBox="0 0 653.41 602.78"><defs><style>.cls-1{fill:#d1dfbc;stroke:#e9ffd6;stroke-width:4px;}.cls-1,.cls-4{stroke-miterlimit:10;}.cls-2{fill:#53b0d1;}.cls-3{fill:#65d6ff;}.cls-4{fill:#ee6f66;stroke:#ff8a6d;stroke-width:5px;}</style></defs><g id="Calque_2" data-name="Calque 2"><g id="Charte"><path class="cls-1" d="M2,597.78V142.87H118.73a131.39,131.39,0,0,1,90.93,36.54l16.39,15.71a166,166,0,0,1,50.8,109.4l1.15,18.3a152.44,152.44,0,0,1-7.14,56.66l-1.37,4.25a145.51,145.51,0,0,0-5.57,65.85l4.53,31.15a184.77,184.77,0,0,0,9.39,37l29.38,80Z"/><path class="cls-2" d="M550.41,600.28a243,243,0,0,1-75.29-11.94l-69.2-5.52-.29-.09A54.31,54.31,0,0,1,389.5,574a48.69,48.69,0,0,1-18.28-33.54l-.79-7.89a29.75,29.75,0,0,1,2.08-14.37c4.76-11.45,7.67-39.17,7.14-48.48s-2.24-33.88-2.41-36.27q-.09-.42-.15-.84a97.63,97.63,0,0,1,21.43-78.14l9-10.83a127.66,127.66,0,0,1,98.28-46h94v302.6Z"/><path class="cls-3" d="M597.37,300.18v297.6h-47a240.84,240.84,0,0,1-74.8-11.91l-69.2-5.52A51.54,51.54,0,0,1,391,572.06a46,46,0,0,1-17.32-31.82l-.8-7.89a27.18,27.18,0,0,1,1.91-13.16c5-12.09,7.86-40.14,7.33-49.58-.55-9.74-2.42-36.49-2.42-36.49-.07-.29-.13-.58-.18-.88a95.22,95.22,0,0,1,20.89-76.14l9-10.83a125.5,125.5,0,0,1,96.36-45.09h91.53m5-5H505.84a130.16,130.16,0,0,0-100.2,46.89l-9,10.83a100.15,100.15,0,0,0-22,80.14c0,.26.09.52.14.79.23,3.21,1.89,27.07,2.4,36.06s-2.31,36.22-7,47.38a32.35,32.35,0,0,0-2.26,15.58l.79,7.89A51.18,51.18,0,0,0,388,576a56.55,56.55,0,0,0,16.89,9.09l.56.19.59,0,68.62,5.48a245.51,245.51,0,0,0,75.78,12h52V295.18Z"/><path class="cls-4" d="M614.78,2.5H293.13L328.62,100A62.9,62.9,0,0,0,403,139.54a376.74,376.74,0,0,1,44.33-8.21c7.38-1,126.79,12.32,137.74,17.8s39.13,22.7,47.74,22.7c3,0,7-9.13,11.08-21.12A134.33,134.33,0,0,0,637.35,49Z"/></g></g></svg>