<svg xmlns="http://www.w3.org/2000/svg" viewBox="0 0 22.99 22.99"><defs><style>.cls-1{fill:#d1dfbc;}.cls-2{fill:#e9ffd6;}.cls-3{fill:#a1ac91;}.cls-4{fill:#89927b;}.cls-5{fill:#c4d2b1;}</style></defs><g id="Calque_2" data-name="Calque 2"><g id="Charte"><g id="Buildings_examples"><g id="house"><rect class="cls-1" x="0.75" y="0.75" width="21.49" height="21.49" rx="3.5"/><path class="cls-2" d="M18.74,1.5a2.75,2.75,0,0,1,2.75,2.75V18.74a2.76,2.76,0,0,1-2.75,2.75H4.25A2.75,2.75,0,0,1,1.5,18.74V4.25A2.75,2.75,0,0,1,4.25,1.5H18.74m0-1.5H4.25A4.25,4.25,0,0,0,0,4.25V18.74A4.25,4.25,0,0,0,4.25,23H18.74A4.25,4.25,0,0,0,23,18.74V4.25A4.25,4.25,0,0,0,18.74,0Z"/><path class="cls-3" d="M2.83,9.21H8.07a0,0,0,0,1,0,0V21a0,0,0,0,1,0,0H4a1.13,1.13,0,0,1-1.13-1.13V9.21A0,0,0,0,1,2.83,9.21Z"/><path class="cls-4" d="M8.07,9.21H13.3a0,0,0,0,1,0,0V19.87A1.13,1.13,0,0,1,12.17,21H8.07a0,0,0,0,1,0,0V9.21A0,0,0,0,1,8.07,9.21Z"/><path class="cls-3" d="M8.11-3.73h2.74a0,0,0,0,1,0,0V10.65a0,0,0,0,1,0,0H8.11A1.13,1.13,0,0,1,7,9.53V-2.6A1.13,1.13,0,0,1,8.11-3.73Z" transform="translate(12.38 -5.46) rotate(90)"/><path class="cls-4" d="M7,.12h2.7a1.13,1.13,0,0,1,1.13,1.13V13.38A1.13,1.13,0,0,1,9.71,14.5H7a0,0,0,0,1,0,0V.12A0,0,0,0,1,7,.12Z" transform="translate(16.23 -1.61) rotate(90)"/><rect class="cls-5" x="13.3" y="13.16" width="8.16" height="3.24"/></g></g></g></g></svg>