<svg xmlns="http://www.w3.org/2000/svg" viewBox="0 0 288.16 13.19"><defs><style>.cls-1{fill:none;stroke:#c00;stroke-linecap:round;stroke-miterlimit:10;stroke-width:4px;}.cls-2{fill:#fff;}.cls-3{fill:#c00;}</style></defs><g id="Calque_2" data-name="Calque 2"><g id="Charte"><g id="ligne2"><line class="cls-1" x1="2" y1="6.6" x2="286.16" y2="6.6"/><g id="purple2"><path class="cls-2" d="M182.16,12.19a5.6,5.6,0,1,1,0-11.19H201.9a5.6,5.6,0,1,1,0,11.19Z"/><path class="cls-3" d="M201.9,2a4.6,4.6,0,1,1,0,9.19H182.16a4.6,4.6,0,1,1,0-9.19H201.9m0-2H182.16a6.6,6.6,0,1,0,0,13.19H201.9a6.61,6.61,0,0,0,6.6-6.59h0A6.62,6.62,0,0,0,201.9,0Z"/></g></g></g></g></svg>