<svg xmlns="http://www.w3.org/2000/svg" viewBox="0 0 288.16 179.38"><defs><style>.cls-1,.cls-10,.cls-12,.cls-14,.cls-4,.cls-6,.cls-8{fill:none;stroke-linecap:round;stroke-miterlimit:10;stroke-width:4px;}.cls-1{stroke:#c0c;}.cls-2{fill:#fff;}.cls-3{fill:#c0c;}.cls-4{stroke:#c00;}.cls-5{fill:#c00;}.cls-6{stroke:#cc3;}.cls-7{fill:#cc3;}.cls-8{stroke:#2fd61d;}.cls-9{fill:#2fd61d;}.cls-10{stroke:#09c;}.cls-11{fill:#09c;}.cls-12{stroke:#ff3;}.cls-13{fill:#ff3;}.cls-14{stroke:#33f;}.cls-15{fill:#33f;}</style></defs><g id="Calque_2" data-name="Calque 2"><g id="Charte"><g id="ligne2"><line class="cls-1" x1="2" y1="6.6" x2="286.16" y2="6.6"/><g id="purple2"><path class="cls-2" d="M168.77,12.19a5.6,5.6,0,1,1,0-11.19h19.74a5.6,5.6,0,1,1,0,11.19Z"/><path class="cls-3" d="M168.77,0V2h19.74a4.6,4.6,0,1,1,0,9.19H168.77a4.6,4.6,0,1,1,0-9.19V0m0,0a6.6,6.6,0,1,0,0,13.19h19.74a6.6,6.6,0,1,0,0-13.19Z"/></g></g><g id="ligne2-2" data-name="ligne2"><line class="cls-4" x1="2" y1="34.92" x2="286.16" y2="34.92"/><g id="purple2-2" data-name="purple2"><path class="cls-2" d="M182.16,40.51a5.6,5.6,0,1,1,0-11.19H201.9a5.6,5.6,0,1,1,0,11.19Z"/><path class="cls-5" d="M201.9,30.32a4.6,4.6,0,1,1,0,9.19H182.16a4.6,4.6,0,1,1,0-9.19H201.9m0-2H182.16a6.6,6.6,0,1,0,0,13.19H201.9a6.62,6.62,0,0,0,6.6-6.59h0a6.62,6.62,0,0,0-6.6-6.6Z"/></g></g><g id="ligne2-3" data-name="ligne2"><line class="cls-6" x1="2" y1="62.48" x2="286.16" y2="62.48"/><g id="purple2-3" data-name="purple2"><path class="cls-2" d="M198.63,68.07a5.6,5.6,0,1,1,0-11.19h19.74a5.6,5.6,0,1,1,0,11.19Z"/><path class="cls-7" d="M218.37,57.88a4.6,4.6,0,1,1,0,9.19H198.63a4.6,4.6,0,1,1,0-9.19h19.74m0-2H198.63a6.6,6.6,0,1,0,0,13.19h19.74a6.6,6.6,0,1,0,0-13.19Z"/></g></g><g id="ligne2-4" data-name="ligne2"><line class="cls-8" x1="2" y1="90.04" x2="286.16" y2="90.04"/><g id="purple2-4" data-name="purple2"><path class="cls-2" d="M215.09,95.63a5.6,5.6,0,0,1,0-11.19h19.75a5.6,5.6,0,0,1,0,11.19Z"/><path class="cls-9" d="M234.84,85.44a4.6,4.6,0,0,1,0,9.19H215.1a4.6,4.6,0,1,1,0-9.19h19.74m0-2H215.1a6.6,6.6,0,1,0,0,13.19h19.74a6.6,6.6,0,0,0,0-13.19Z"/></g></g><g id="ligne2-5" data-name="ligne2"><line class="cls-10" x1="2" y1="117.6" x2="286.16" y2="117.6"/><g id="purple2-5" data-name="purple2"><path class="cls-2" d="M231.56,123.2a5.6,5.6,0,0,1,0-11.2h19.75a5.6,5.6,0,0,1,0,11.2Z"/><path class="cls-11" d="M251.31,113a4.6,4.6,0,0,1,0,9.2H231.56a4.6,4.6,0,0,1,0-9.2h19.75m0-2H231.56a6.6,6.6,0,0,0,0,13.2h19.75a6.6,6.6,0,0,0,0-13.2Z"/></g></g><g id="ligne2-6" data-name="ligne2"><line class="cls-12" x1="2" y1="144.55" x2="286.16" y2="144.55"/><g id="purple2-6" data-name="purple2"><path class="cls-2" d="M248,150.15A5.6,5.6,0,1,1,248,139h19.74a5.6,5.6,0,1,1,0,11.19Z"/><path class="cls-13" d="M267.77,140a4.6,4.6,0,1,1,0,9.19H248a4.6,4.6,0,1,1,0-9.19h19.74m0-2H248a6.61,6.61,0,0,0-6.6,6.59h0a6.62,6.62,0,0,0,6.6,6.6h19.74a6.62,6.62,0,0,0,6.6-6.6h0a6.61,6.61,0,0,0-6.6-6.59Z"/></g></g><g id="ligne2-7" data-name="ligne2"><line class="cls-14" x1="2" y1="172.78" x2="286.16" y2="172.78"/><g id="purple2-7" data-name="purple2"><path class="cls-2" d="M259.82,178.38a5.6,5.6,0,1,1,0-11.2h19.74a5.6,5.6,0,1,1,0,11.2Z"/><path class="cls-15" d="M279.56,168.18a4.6,4.6,0,1,1,0,9.2H259.82a4.6,4.6,0,1,1,0-9.2h19.74m0-2H259.82a6.62,6.62,0,0,0-6.6,6.6h0a6.62,6.62,0,0,0,6.6,6.6h19.74a6.6,6.6,0,1,0,0-13.2Z"/></g></g></g></g></svg>