<svg xmlns="http://www.w3.org/2000/svg" viewBox="0 0 288.16 13.19"><defs><style>.cls-1{fill:none;stroke:#33f;stroke-linecap:round;stroke-miterlimit:10;stroke-width:4px;}.cls-2{fill:#fff;}.cls-3{fill:#33f;}</style></defs><g id="Calque_2" data-name="Calque 2"><g id="Charte"><g id="ligne2"><line class="cls-1" x1="2" y1="6.6" x2="286.16" y2="6.6"/><g id="purple2"><path class="cls-2" d="M259.82,12.19a5.6,5.6,0,1,1,0-11.19h19.74a5.6,5.6,0,1,1,0,11.19Z"/><path class="cls-3" d="M279.56,2a4.6,4.6,0,1,1,0,9.19H259.82a4.6,4.6,0,1,1,0-9.19h19.74m0-2H259.82a6.62,6.62,0,0,0-6.6,6.6h0a6.61,6.61,0,0,0,6.6,6.59h19.74a6.6,6.6,0,1,0,0-13.19Z"/></g></g></g></g></svg>