<svg xmlns="http://www.w3.org/2000/svg" viewBox="0 0 45.98 45.98"><defs><style>.cls-1{fill:#53b0d1;}.cls-2{fill:#65d6ff;}.cls-3{fill:#346f84;}.cls-4{fill:#3e859e;}.cls-5{fill:#62d0f7;}</style></defs><g id="Calque_2" data-name="Calque 2"><g id="Charte"><g id="Buildings_examples"><g id="office"><rect class="cls-1" x="0.75" y="0.75" width="44.48" height="44.48" rx="3.5"/><path class="cls-2" d="M41.73,1.5a2.75,2.75,0,0,1,2.75,2.75V41.73a2.76,2.76,0,0,1-2.75,2.75H4.25A2.75,2.75,0,0,1,1.5,41.73V4.25A2.75,2.75,0,0,1,4.25,1.5H41.73m0-1.5H4.25A4.25,4.25,0,0,0,0,4.25V41.73A4.25,4.25,0,0,0,4.25,46H41.73A4.26,4.26,0,0,0,46,41.73V4.25A4.25,4.25,0,0,0,41.73,0Z"/><path class="cls-3" d="M18.48,24.13H3.38v14a2.26,2.26,0,0,0,2.26,2.26H16.21a2.27,2.27,0,0,0,2.27-2.27Z"/><path class="cls-3" d="M39.08,24.13H3.38V5.75A2.26,2.26,0,0,1,5.63,3.49H39.08a2.26,2.26,0,0,1,2.25,2.26V21.88A2.25,2.25,0,0,1,39.08,24.13Z"/><path class="cls-4" d="M17.08,23H3.38V36.66a2.28,2.28,0,0,0,2.27,2.28H14.8a2.28,2.28,0,0,0,2.28-2.28Z"/><path class="cls-4" d="M38,23H3.38V5.75A2.26,2.26,0,0,1,5.63,3.49H38a2.26,2.26,0,0,1,2.25,2.26v15A2.26,2.26,0,0,1,38,23Z"/><rect class="cls-3" x="3.38" y="3.49" width="33.04" height="18.38" rx="2.26"/><rect class="cls-4" x="3.38" y="3.49" width="29.91" height="15.96" rx="2.26"/><rect class="cls-3" x="7.65" y="5.77" width="23.7" height="12.81" rx="2.26"/><rect class="cls-4" x="7.65" y="5.77" width="21.38" height="11.4" rx="2.26"/><rect class="cls-5" x="19.49" y="24.8" width="21.24" height="15.54"/><rect class="cls-5" x="19.49" y="40.34" width="6.15" height="4.12"/><rect class="cls-5" x="40.66" y="30.51" width="3.8" height="4.12"/></g></g></g></g></svg>