<svg xmlns="http://www.w3.org/2000/svg" viewBox="0 0 98.62 79.18"><defs><style>.cls-1{fill:#d1dfbc;}.cls-2{fill:#e9ffd6;}</style></defs><g id="Calque_2" data-name="Calque 2"><g id="Charte"><path class="cls-1" d="M14.28,77.18A12.29,12.29,0,0,1,2,64.91V36.07A12.3,12.3,0,0,1,14.28,23.79h11a8.29,8.29,0,0,0,8.28-8.27V14.28A12.29,12.29,0,0,1,45.83,2h8.31A12.29,12.29,0,0,1,66.41,14.28a8.29,8.29,0,0,0,8.28,8.27h9.65A12.3,12.3,0,0,1,96.62,34.83v6.34A12.3,12.3,0,0,1,84.34,53.45h-9a8.28,8.28,0,0,0-8.27,8.28v3.18A12.29,12.29,0,0,1,54.81,77.18Z"/><path class="cls-2" d="M54.14,4A10.27,10.27,0,0,1,64.41,14.28h0A10.27,10.27,0,0,0,74.69,24.55h9.65A10.28,10.28,0,0,1,94.62,34.83v6.34A10.28,10.28,0,0,1,84.34,51.45h-9A10.27,10.27,0,0,0,65.09,61.73v3.18A10.27,10.27,0,0,1,54.81,75.18H14.28A10.27,10.27,0,0,1,4,64.91V36.07A10.28,10.28,0,0,1,14.28,25.79h11A10.28,10.28,0,0,0,35.56,15.52V14.28A10.27,10.27,0,0,1,45.83,4h8.31m0-4H45.83A14.29,14.29,0,0,0,31.56,14.28v1.24a6.28,6.28,0,0,1-6.28,6.27h-11A14.29,14.29,0,0,0,0,36.07V64.91A14.29,14.29,0,0,0,14.28,79.18H54.81A14.29,14.29,0,0,0,69.09,64.91V61.73a6.28,6.28,0,0,1,6.27-6.28h9A14.29,14.29,0,0,0,98.62,41.17V34.83A14.29,14.29,0,0,0,84.34,20.55H74.69a6.28,6.28,0,0,1-6.28-6.27A14.29,14.29,0,0,0,54.14,0Z"/></g></g></svg>