<svg xmlns="http://www.w3.org/2000/svg" viewBox="0 0 115.38 111.17"><defs><style>.cls-1{fill:#53b0d1;}.cls-2{fill:#65d6ff;}</style></defs><g id="Calque_2" data-name="Calque 2"><g id="Charte"><path class="cls-1" d="M53.7,108.67A14.25,14.25,0,0,1,39.47,94.43V88.74a9.25,9.25,0,0,0-9.24-9.24H16.74A14.26,14.26,0,0,1,2.5,65.26V58.94A14.25,14.25,0,0,1,16.74,44.71,9.24,9.24,0,0,0,26,35.38l-.18-18.51A14.24,14.24,0,0,1,40,2.5h5.66A14.25,14.25,0,0,1,59.91,16.74v1.63a9.25,9.25,0,0,0,9.24,9.23H98.64a14.26,14.26,0,0,1,14.24,14.24V66.37A14.25,14.25,0,0,1,98.64,80.6h-8a9.25,9.25,0,0,0-9.24,9.24v4.59A14.25,14.25,0,0,1,67.2,108.67Z"/><path class="cls-2" d="M45.68,5A11.73,11.73,0,0,1,57.41,16.74v1.63A11.74,11.74,0,0,0,69.15,30.1H98.64a11.74,11.74,0,0,1,11.74,11.74V66.37A11.73,11.73,0,0,1,98.64,78.1h-8A11.74,11.74,0,0,0,78.93,89.84v4.59A11.73,11.73,0,0,1,67.2,106.17H53.7A11.73,11.73,0,0,1,42,94.43V88.74A11.74,11.74,0,0,0,30.23,77H16.74A11.73,11.73,0,0,1,5,65.26V58.94A11.73,11.73,0,0,1,16.74,47.21h0A11.74,11.74,0,0,0,28.47,35.36l-.18-18.51A11.73,11.73,0,0,1,40,5h5.66m0-5H40A16.73,16.73,0,0,0,23.29,16.9l.18,18.51a6.74,6.74,0,0,1-6.73,6.8A16.75,16.75,0,0,0,0,58.94v6.32A16.76,16.76,0,0,0,16.74,82H30.23A6.75,6.75,0,0,1,37,88.74v5.69A16.75,16.75,0,0,0,53.7,111.17H67.2A16.76,16.76,0,0,0,83.93,94.43V89.84a6.74,6.74,0,0,1,6.74-6.74h8a16.75,16.75,0,0,0,16.74-16.73V41.84A16.76,16.76,0,0,0,98.64,25.1H69.15a6.75,6.75,0,0,1-6.74-6.73V16.74A16.75,16.75,0,0,0,45.68,0Z"/></g></g></svg>