<svg xmlns="http://www.w3.org/2000/svg" viewBox="0 0 125.1 102.67"><defs><style>.cls-1{fill:#ee6f66;}.cls-2{fill:#ff8a6d;}</style></defs><g id="Calque_2" data-name="Calque 2"><g id="Charte"><path class="cls-1" d="M42,100.17A13.55,13.55,0,0,1,28.43,86.64v-.28a8.54,8.54,0,0,0-8.53-8.53H16A13.55,13.55,0,0,1,2.5,64.29v-21A13.55,13.55,0,0,1,16,29.79h7.26a8.52,8.52,0,0,0,8.53-8.58l0-5.11A13.54,13.54,0,0,1,45.33,2.5h29A13.55,13.55,0,0,1,87.84,16v3.85a8.55,8.55,0,0,0,8.54,8.53h12.69A13.55,13.55,0,0,1,122.6,42V64.57A13.55,13.55,0,0,1,109.07,78.1H70.93a8.55,8.55,0,0,0-8.53,8.54,13.55,13.55,0,0,1-13.54,13.53Z"/><path class="cls-2" d="M74.31,5a11,11,0,0,1,11,11v3.85a11,11,0,0,0,11,11h12.69a11,11,0,0,1,11,11V64.57a11,11,0,0,1-11,11H70.93a11,11,0,0,0-11,11,11,11,0,0,1-11,11H42a11,11,0,0,1-11-11v-.28a11,11,0,0,0-11-11H16a11,11,0,0,1-11-11v-21a11,11,0,0,1,11-11h7.26a11,11,0,0,0,11-11.09l0-5.11A11,11,0,0,1,45.33,5h29m0-5h-29a16,16,0,0,0-16,16.12l0,5.11a6,6,0,0,1-6,6.06H16a16.06,16.06,0,0,0-16,16v21a16.06,16.06,0,0,0,16,16H19.9a6,6,0,0,1,6,6v.28a16,16,0,0,0,16,16h6.89a16.06,16.06,0,0,0,16-16,6,6,0,0,1,6-6h38.14a16,16,0,0,0,16-16V42a16.06,16.06,0,0,0-16-16H96.38a6,6,0,0,1-6-6V16a16,16,0,0,0-16-16Z"/></g></g></svg>