<svg xmlns="http://www.w3.org/2000/svg" viewBox="0 0 45.98 45.98"><defs><style>.cls-1{fill:#ee6f66;}.cls-2{fill:#ff8a6d;}.cls-3{fill:#a14b45;}.cls-4{fill:#cc6657;}.cls-5{fill:#ff806d;}</style></defs><g id="Calque_2" data-name="Calque 2"><g id="Charte"><g id="Buildings_examples"><g id="shop"><rect class="cls-1" x="0.75" y="0.75" width="44.48" height="44.48" rx="3.5"/><path class="cls-2" d="M41.73,1.5a2.75,2.75,0,0,1,2.75,2.75V41.73a2.76,2.76,0,0,1-2.75,2.75H4.25A2.75,2.75,0,0,1,1.5,41.73V4.25A2.75,2.75,0,0,1,4.25,1.5H41.73m0-1.5H4.25A4.25,4.25,0,0,0,0,4.25V41.73A4.25,4.25,0,0,0,4.25,46H41.73A4.26,4.26,0,0,0,46,41.73V4.25A4.25,4.25,0,0,0,41.73,0Z"/><path class="cls-3" d="M39.08,24H5.64a2.26,2.26,0,0,1-2.26-2.26V5.6A2.26,2.26,0,0,1,5.63,3.34H39.08A2.26,2.26,0,0,1,41.33,5.6V21.73A2.25,2.25,0,0,1,39.08,24Z"/><path class="cls-4" d="M38,23H5.66a2.28,2.28,0,0,1-2.28-2.28V5.6A2.26,2.26,0,0,1,5.63,3.34H38A2.26,2.26,0,0,1,40.27,5.6V20.73A2.26,2.26,0,0,1,38,23Z"/><rect class="cls-5" x="3.38" y="24.8" width="37.36" height="15.54"/><rect class="cls-5" x="6.79" y="40.34" width="6.15" height="4.12"/><rect class="cls-5" x="31.16" y="40.34" width="6.15" height="4.12"/></g></g></g></g></svg>