<svg xmlns="http://www.w3.org/2000/svg" viewBox="0 0 119.33 119.33"><defs><style>.cls-1{opacity:0.15;}.cls-2{fill:#a4a4a4;}.cls-3{fill:#fff;}.cls-4{fill:#b2b2b2;}.cls-5{fill:#0c0c0c;}.cls-6{fill:#ed362e;}</style></defs><g id="Calque_2" data-name="Calque 2"><g id="Charte"><g id="Buildings_examples"><g id="station"><g id="station-2" data-name="station"><g class="cls-1"><circle class="cls-2" cx="59.66" cy="59.66" r="58.66" transform="translate(-12.11 104.02) rotate(-76.72)"/><path class="cls-3" d="M59.66,2A57.67,57.67,0,1,1,2,59.66,57.73,57.73,0,0,1,59.66,2m0-2a59.67,59.67,0,1,0,59.67,59.66A59.66,59.66,0,0,0,59.66,0Z"/></g><rect class="cls-3" x="48.92" y="48.92" width="21.49" height="21.49" rx="3.5"/><path class="cls-4" d="M66.91,49.67a2.75,2.75,0,0,1,2.75,2.75V66.91a2.76,2.76,0,0,1-2.75,2.75H52.42a2.75,2.75,0,0,1-2.75-2.75V52.42a2.75,2.75,0,0,1,2.75-2.75H66.91m0-1.5H52.42a4.25,4.25,0,0,0-4.25,4.25V66.91a4.25,4.25,0,0,0,4.25,4.25H66.91a4.26,4.26,0,0,0,4.25-4.25V52.42a4.25,4.25,0,0,0-4.25-4.25Z"/><path class="cls-3" d="M59.66,69.66a10,10,0,1,1,10-10A10,10,0,0,1,59.66,69.66Z"/><path class="cls-5" d="M59.66,51.17a8.5,8.5,0,1,1-8.49,8.49,8.5,8.5,0,0,1,8.49-8.49m0-3a11.5,11.5,0,1,0,11.5,11.49,11.48,11.48,0,0,0-11.5-11.49Z"/></g><g id="station-people-pin"><circle class="cls-3" cx="59.67" cy="47.64" r="5.34"/><path class="cls-6" d="M59.67,41h0A6.62,6.62,0,0,0,53,47.62a6.46,6.46,0,0,0,.82,3.18l5.8,8.86,5.81-8.86A6.62,6.62,0,0,0,59.67,41Zm0,12A5.34,5.34,0,1,1,65,47.64,5.33,5.33,0,0,1,59.66,53Z"/><path class="cls-6" d="M57.71,48.54H58.8c0,.37.38.62.86.62s.84-.28.84-.69-.36-.7-.94-.7h-.48V47h.48c.49,0,.84-.27.83-.67a.65.65,0,0,0-.72-.65.74.74,0,0,0-.82.64h-1a1.67,1.67,0,0,1,1.86-1.5,1.57,1.57,0,0,1,1.77,1.44,1.09,1.09,0,0,1-1,1.09v0a1.16,1.16,0,0,1,1.16,1.19c0,.87-.82,1.5-2,1.5S57.73,49.43,57.71,48.54Z"/></g></g></g></g></g></svg>