<svg xmlns="http://www.w3.org/2000/svg" viewBox="0 0 22.99 22.99"><defs><style>.cls-1{fill:#fff;}.cls-2{fill:#b2b2b2;}.cls-3{fill:#0c0c0c;}</style></defs><g id="Calque_2" data-name="Calque 2"><g id="Charte"><g id="Buildings_examples"><g id="station"><g id="station-2" data-name="station"><rect class="cls-1" x="0.75" y="0.75" width="21.49" height="21.49" rx="3.5"/><path class="cls-2" d="M18.74,1.5a2.75,2.75,0,0,1,2.75,2.75V18.74a2.76,2.76,0,0,1-2.75,2.75H4.25A2.75,2.75,0,0,1,1.5,18.74V4.25A2.75,2.75,0,0,1,4.25,1.5H18.74m0-1.5H4.25A4.25,4.25,0,0,0,0,4.25V18.74A4.25,4.25,0,0,0,4.25,23H18.74A4.25,4.25,0,0,0,23,18.74V4.25A4.25,4.25,0,0,0,18.74,0Z"/><path class="cls-1" d="M11.49,21.49a10,10,0,1,1,10-10A10,10,0,0,1,11.49,21.49Z"/><path class="cls-3" d="M11.49,3A8.5,8.5,0,1,1,3,11.49,8.5,8.5,0,0,1,11.49,3m0-3A11.5,11.5,0,1,0,23,11.49,11.5,11.5,0,0,0,11.49,0Z"/></g></g></g></g></g></svg>