<svg xmlns="http://www.w3.org/2000/svg" viewBox="0 0 119.33 119.33"><defs><style>.cls-1{opacity:0.15;}.cls-2{fill:#a4a4a4;}.cls-3{fill:#fff;}.cls-4{fill:#b2b2b2;}.cls-5{fill:#0c0c0c;}</style></defs><g id="Calque_2" data-name="Calque 2"><g id="Charte"><g id="Buildings_examples"><g id="station"><g id="station-2" data-name="station"><g class="cls-1"><circle class="cls-2" cx="59.66" cy="59.66" r="58.66" transform="translate(-12.11 104.02) rotate(-76.72)"/><path class="cls-3" d="M59.66,2A57.67,57.67,0,1,1,2,59.66,57.73,57.73,0,0,1,59.66,2m0-2a59.67,59.67,0,1,0,59.67,59.66A59.66,59.66,0,0,0,59.66,0Z"/></g><rect class="cls-3" x="48.92" y="48.92" width="21.49" height="21.49" rx="3.5"/><path class="cls-4" d="M66.91,49.67a2.75,2.75,0,0,1,2.75,2.75V66.91a2.76,2.76,0,0,1-2.75,2.75H52.42a2.75,2.75,0,0,1-2.75-2.75V52.42a2.75,2.75,0,0,1,2.75-2.75H66.91m0-1.5H52.42a4.25,4.25,0,0,0-4.25,4.25V66.91a4.25,4.25,0,0,0,4.25,4.25H66.91a4.26,4.26,0,0,0,4.25-4.25V52.42a4.25,4.25,0,0,0-4.25-4.25Z"/><path class="cls-3" d="M59.66,69.66a10,10,0,1,1,10-10A10,10,0,0,1,59.66,69.66Z"/><path class="cls-5" d="M59.66,51.17a8.5,8.5,0,1,1-8.49,8.49,8.5,8.5,0,0,1,8.49-8.49m0-3a11.5,11.5,0,1,0,11.5,11.49,11.48,11.48,0,0,0-11.5-11.49Z"/></g></g></g></g></g></svg>