<svg xmlns="http://www.w3.org/2000/svg" viewBox="0 0 22.99 30.17"><defs><style>.cls-1{fill:#fff;}.cls-2{fill:#b2b2b2;}.cls-3{fill:#0c0c0c;}.cls-4{fill:#ed362e;}</style></defs><g id="Calque_2" data-name="Calque 2"><g id="Charte"><g id="Buildings_examples"><g id="station"><g id="station-2" data-name="station"><rect class="cls-1" x="0.75" y="7.93" width="21.49" height="21.49" rx="3.5"/><path class="cls-2" d="M18.74,8.68a2.75,2.75,0,0,1,2.75,2.75V25.91a2.76,2.76,0,0,1-2.75,2.76H4.25A2.76,2.76,0,0,1,1.5,25.91V11.43A2.75,2.75,0,0,1,4.25,8.68H18.74m0-1.5H4.25A4.25,4.25,0,0,0,0,11.43V25.91a4.25,4.25,0,0,0,4.25,4.26H18.74A4.25,4.25,0,0,0,23,25.91V11.43a4.25,4.25,0,0,0-4.25-4.25Z"/><path class="cls-1" d="M11.49,28.67a10,10,0,1,1,10-10A10,10,0,0,1,11.49,28.67Z"/><path class="cls-3" d="M11.49,10.18A8.5,8.5,0,1,1,3,18.67a8.5,8.5,0,0,1,8.49-8.49m0-3A11.5,11.5,0,1,0,23,18.67,11.49,11.49,0,0,0,11.49,7.18Z"/></g><g id="station-people-pin"><circle class="cls-1" cx="11.5" cy="6.65" r="5.34"/><path class="cls-4" d="M11.5,0h0a6.62,6.62,0,0,0-5.8,9.81l5.8,8.86L17.3,9.81A6.62,6.62,0,0,0,11.5,0Zm0,12a5.34,5.34,0,1,1,5.34-5.33A5.33,5.33,0,0,1,11.49,12Z"/><path class="cls-4" d="M9.54,7.54h1.09c0,.38.38.63.86.63s.85-.28.84-.69-.36-.7-.94-.7h-.48V6h.48c.5,0,.84-.27.84-.67a.65.65,0,0,0-.73-.65.74.74,0,0,0-.82.64h-1A1.65,1.65,0,0,1,11.5,3.8a1.57,1.57,0,0,1,1.77,1.44,1.09,1.09,0,0,1-1,1.09v0a1.16,1.16,0,0,1,1.16,1.18c0,.88-.82,1.51-2,1.51S9.56,8.44,9.54,7.54Z"/></g></g></g></g></g></svg>