<svg xmlns="http://www.w3.org/2000/svg" viewBox="0 0 32.94 25.27"><defs><style>.cls-1{fill:#fff;}.cls-2{fill:#c0c;}</style></defs><g id="Calque_2" data-name="Calque 2"><g id="Charte"><g id="ligne1"><g id="purple2"><path class="cls-1" d="M6.6,24.27a5.6,5.6,0,0,1,0-11.2H26.34a5.6,5.6,0,0,1,0,11.2Z"/><path class="cls-2" d="M26.34,14.07a4.6,4.6,0,0,1,0,9.2H6.6a4.6,4.6,0,0,1,0-9.2H26.34m0-2H6.6a6.6,6.6,0,0,0,0,13.2H26.34a6.6,6.6,0,0,0,0-13.2Z"/><g id="station-people-pin"><circle class="cls-1" cx="16.28" cy="6.65" r="5.34"/><path class="cls-2" d="M16.28,0h0a6.62,6.62,0,0,0-5.8,9.81l5.81,8.86,5.8-8.86A6.62,6.62,0,0,0,16.28,0Zm0,12a5.34,5.34,0,1,1,5.33-5.33A5.34,5.34,0,0,1,16.28,12Z"/></g><path class="cls-2" d="M14.49,8.56l1.82-1.69c.47-.45.72-.73.72-1.14a.79.79,0,0,0-1.57.06h-1a1.63,1.63,0,0,1,1.81-1.65c1.1,0,1.82.63,1.82,1.52,0,.58-.28,1.06-1.33,2L16,8.42v0h2.15v.89H14.49Z"/></g></g></g></g></svg>