<svg xmlns="http://www.w3.org/2000/svg" viewBox="0 0 357.79 169.33"><defs><style>.cls-1{fill:#ee6f66;}.cls-2{fill:#ff8a6d;}</style></defs><g id="Calque_2" data-name="Calque 2"><g id="Calque_1-2" data-name="Calque 1"><path class="cls-1" d="M339.48,166.83c-5.94-.22-23.45-9.89-35.08-16.32-4.55-2.51-8.48-4.68-11.34-6.12-11.64-5.82-124.84-18.11-137.64-18.11a12.68,12.68,0,0,0-1.56.07,380.14,380.14,0,0,0-44.59,8.26,60.33,60.33,0,0,1-71.43-38L3.57,2.5H320.08L342,47.59a131,131,0,0,1,6.42,99.82C342.83,163.74,340.15,166.4,339.48,166.83Z"/><path class="cls-2" d="M318.52,5l21.21,43.69A129.4,129.4,0,0,1,346,146.6c-4.11,12.06-6.48,16.21-7.51,17.6-6.35-1.2-23.45-10.65-32.92-15.88-4.57-2.52-8.51-4.71-11.42-6.16-12.32-6.17-125.52-18.38-138.76-18.38a15.44,15.44,0,0,0-1.86.09,384.68,384.68,0,0,0-44.9,8.32,57.85,57.85,0,0,1-68.47-36.4L7.14,5H318.52m3.13-5H0L35.49,97.5A62.84,62.84,0,0,0,109.87,137a376.63,376.63,0,0,1,44.33-8.21,9.39,9.39,0,0,1,1.22-.05c14.59,0,126,12.57,136.52,17.85,10.95,5.48,39.13,22.7,47.74,22.7,3,0,7-9.13,11.08-21.12A134.29,134.29,0,0,0,344.22,46.5L321.65,0Z"/></g></g></svg>