<svg xmlns="http://www.w3.org/2000/svg" viewBox="0 0 373.93 71.15"><defs><style>.cls-1{fill:#fff;}.cls-2{fill:#0c0c0c;}.cls-3{fill:#ed362e;}</style></defs><g id="Calque_2" data-name="Calque 2"><g id="Charte"><g id="title"><path class="cls-1" d="M16.37,15.25l13,31.62h.51l13-31.62h9.67V58.88H44.87v-30h-.4L32.41,58.75H26.74l-12-29.91h-.41v30H6.7V15.25Z" transform="translate(-4.3)"/><path class="cls-1" d="M55.34,17.34a4.47,4.47,0,0,1,8.92,0,4.47,4.47,0,0,1-8.92,0Zm.59,8.82h7.71V58.88H55.93Z" transform="translate(-4.3)"/><path class="cls-1" d="M74.48,58.88H66.77V26.16h7.37v5.56h.39c1.49-3.64,4.85-6,9.75-6,6.75,0,11.23,4.48,11.21,12.32V58.88H87.77V39.24c0-4.37-2.38-7-6.36-7S74.48,35,74.48,39.71Z" transform="translate(-4.3)"/><path class="cls-1" d="M98,17.34a4.47,4.47,0,0,1,8.92,0,4.47,4.47,0,0,1-8.92,0Zm.6,8.82h7.71V58.88H98.56Z" transform="translate(-4.3)"/><path class="cls-1" d="M117.91,15.25h34.81v6.63H139.23v37h-7.84v-37H117.91Z" transform="translate(-4.3)"/><path class="cls-1" d="M150.87,26.16h7.47v5.45h.34a8.18,8.18,0,0,1,8.08-5.92,19.75,19.75,0,0,1,2.77.21V33a14.87,14.87,0,0,0-3.58-.45c-4.24,0-7.37,2.94-7.37,7.09V58.88h-7.71Z" transform="translate(-4.3)"/><path class="cls-1" d="M167.72,49.7c0-7.37,6.07-9.27,12.41-10,5.78-.62,8.1-.72,8.1-2.94v-.13c0-3.21-2-5-5.54-5-3.77,0-5.94,1.91-6.71,4.15l-7.2-1c1.7-6,7-9,13.87-9,6.24,0,13.29,2.6,13.29,11.25v21.9h-7.41V54.39h-.26c-1.4,2.74-4.47,5.15-9.61,5.15C172.42,59.54,167.72,56.13,167.72,49.7Zm20.53-2.56V43.29c-1,.81-5.05,1.32-7.07,1.59-3.45.49-6,1.73-6,4.69s2.3,4.3,5.52,4.3C185.31,53.87,188.25,50.78,188.25,47.14Z" transform="translate(-4.3)"/><path class="cls-1" d="M198.92,26.16h7.37v5.56h.39c1.36-3.73,4.64-6,9-6s7.58,2.28,8.84,6h.34c1.45-3.64,5.07-6,9.82-6,6,0,10.22,3.88,10.22,11.19v22H237.2V38.11c0-4-2.47-5.88-5.58-5.88-3.73,0-5.92,2.56-5.92,6.24V58.88h-7.56V37.79a5.23,5.23,0,0,0-5.5-5.56c-3.32,0-6,2.73-6,6.75v19.9h-7.71Z" transform="translate(-4.3)"/><path class="cls-1" d="M245.49,26.16h7.86l5.76,23h.29l5.88-23h7.78L278.94,49h.32l5.66-22.88h7.89l-9.27,32.72h-8l-6.14-22.11h-.44l-6.14,22.11h-8.05Z" transform="translate(-4.3)"/><path class="cls-1" d="M291.9,49.7c0-7.37,6.07-9.27,12.41-10,5.78-.62,8.1-.72,8.1-2.94v-.13c0-3.21-2-5-5.54-5-3.77,0-5.94,1.91-6.71,4.15l-7.2-1c1.7-6,7-9,13.87-9,6.24,0,13.29,2.6,13.29,11.25v21.9h-7.41V54.39h-.26c-1.41,2.74-4.47,5.15-9.61,5.15C296.6,59.54,291.9,56.13,291.9,49.7Zm20.53-2.56V43.29c-1,.81-5.05,1.32-7.07,1.59-3.45.49-6,1.73-6,4.69s2.3,4.3,5.52,4.3C309.49,53.87,312.43,50.78,312.43,47.14Z" transform="translate(-4.3)"/><path class="cls-1" d="M321.68,70.34l1.78-6c3.37,1,5.63.73,7.06-3l.66-1.77-11.87-33.4h8.18L335,50.87h.34l7.56-24.71h8.21L338,62.84c-1.85,5.22-5.32,8.31-11.33,8.31A14.3,14.3,0,0,1,321.68,70.34Z" transform="translate(-4.3)"/><path class="cls-1" d="M370.5,35.58c-.6-2.16-2.47-4.09-6-4.09-3.22,0-5.66,1.53-5.64,3.74,0,1.9,1.3,3.05,4.62,3.8L369,40.22c6.18,1.34,9.18,4.2,9.2,8.86,0,6.2-5.79,10.44-14,10.44-8,0-13.08-3.56-14-9.57l7.52-.72c.66,2.94,3,4.47,6.5,4.47s6.09-1.68,6.09-3.92c0-1.85-1.41-3.06-4.41-3.72l-5.58-1.18c-6.29-1.29-9.23-4.45-9.2-9.22,0-6,5.34-9.93,13.22-9.93,7.67,0,12.1,3.54,13.17,9.08Z" transform="translate(-4.3)"/><path class="cls-2" d="M14,13l13,31.61h.52L40.39,13h9.67V56.62H42.47v-30h-.4L30,56.5H24.35L12.29,26.59h-.4v30H4.3V13Z" transform="translate(-4.3)"/><path class="cls-2" d="M52.94,15.09a4.47,4.47,0,0,1,8.93,0,4.48,4.48,0,0,1-8.93,0Zm.6,8.81h7.71V56.62H53.54Z" transform="translate(-4.3)"/><path class="cls-2" d="M72.09,56.62H64.38V23.9h7.37v5.56h.38c1.49-3.64,4.86-6,9.76-6,6.75,0,11.22,4.47,11.2,12.31V56.62H85.38V37c0-4.36-2.39-7-6.37-7s-6.92,2.72-6.92,7.45Z" transform="translate(-4.3)"/><path class="cls-2" d="M95.56,15.09a4.47,4.47,0,0,1,8.93,0,4.48,4.48,0,0,1-8.93,0Zm.6,8.81h7.71V56.62H96.16Z" transform="translate(-4.3)"/><path class="cls-2" d="M115.52,13h34.8v6.62H136.84v37H129v-37H115.52Z" transform="translate(-4.3)"/><path class="cls-2" d="M148.47,23.9H156v5.46h.34a8.16,8.16,0,0,1,8.07-5.92,18.25,18.25,0,0,1,2.77.21v7.09a15,15,0,0,0-3.58-.44c-4.24,0-7.37,2.93-7.37,7.09V56.62h-7.71Z" transform="translate(-4.3)"/><path class="cls-2" d="M165.32,47.44c0-7.37,6.07-9.26,12.42-9.95,5.77-.61,8.09-.72,8.09-2.93v-.13c0-3.22-2-5.05-5.54-5.05-3.77,0-5.94,1.92-6.71,4.15l-7.2-1c1.71-6,7-9,13.87-9,6.24,0,13.29,2.6,13.29,11.25V56.62h-7.41V52.13h-.25c-1.41,2.75-4.48,5.15-9.61,5.15C170,57.28,165.32,53.88,165.32,47.44Zm20.53-2.55V41c-1,.81-5,1.32-7.07,1.6-3.45.49-6,1.72-6,4.68s2.3,4.31,5.52,4.31C182.92,51.62,185.85,48.53,185.85,44.89Z" transform="translate(-4.3)"/><path class="cls-2" d="M196.53,23.9h7.37v5.56h.38c1.37-3.72,4.65-6,9-6s7.59,2.28,8.84,6h.34c1.45-3.64,5.07-6,9.82-6,6,0,10.23,3.88,10.23,11.18v22h-7.73V35.86c0-4.05-2.47-5.88-5.58-5.88-3.73,0-5.93,2.55-5.93,6.24v20.4h-7.56V35.54A5.23,5.23,0,0,0,210.25,30c-3.33,0-6,2.72-6,6.75V56.62h-7.71Z" transform="translate(-4.3)"/><path class="cls-2" d="M243.1,23.9H251l5.75,23h.3l5.88-23h7.77l5.88,22.88h.32l5.67-22.88h7.88l-9.27,32.72h-8L267,34.51h-.45L260.4,56.62h-8.06Z" transform="translate(-4.3)"/><path class="cls-2" d="M289.5,47.44c0-7.37,6.07-9.26,12.42-9.95,5.77-.61,8.09-.72,8.09-2.93v-.13c0-3.22-2-5.05-5.53-5.05-3.78,0-6,1.92-6.71,4.15l-7.21-1c1.71-6,7-9,13.87-9,6.24,0,13.29,2.6,13.29,11.25V56.62h-7.41V52.13h-.25c-1.41,2.75-4.48,5.15-9.61,5.15C294.21,57.28,289.5,53.88,289.5,47.44ZM310,44.89V41c-1,.81-5,1.32-7.07,1.6-3.45.49-6,1.72-6,4.68s2.3,4.31,5.52,4.31C307.1,51.62,310,48.53,310,44.89Z" transform="translate(-4.3)"/><path class="cls-2" d="M319.28,68.08l1.79-6c3.37,1,5.62.72,7.05-3l.66-1.76L316.92,23.9h8.18l7.54,24.71H333l7.56-24.71h8.2l-13.1,36.69c-1.85,5.21-5.33,8.3-11.33,8.3A14.36,14.36,0,0,1,319.28,68.08Z" transform="translate(-4.3)"/><path class="cls-2" d="M368.1,33.32c-.59-2.15-2.47-4.09-6-4.09-3.22,0-5.67,1.53-5.65,3.75,0,1.89,1.3,3,4.62,3.79L366.63,38c6.18,1.35,9.18,4.2,9.21,8.86,0,6.2-5.8,10.44-14,10.44s-13.08-3.55-14-9.56l7.51-.73c.67,2.94,3,4.48,6.5,4.48s6.09-1.69,6.09-3.92c0-1.86-1.4-3.07-4.41-3.73l-5.58-1.17c-6.28-1.3-9.22-4.45-9.2-9.23,0-6,5.35-9.92,13.23-9.92,7.67,0,12.1,3.53,13.16,9.07Z" transform="translate(-4.3)"/><g id="station-people-pin"><circle class="cls-1" cx="95.9" cy="8.27" r="6.64"/><path class="cls-3" d="M100.2,0h0A8.25,8.25,0,0,0,93,12.21l7.23,11,7.23-11A8.25,8.25,0,0,0,100.2,0Zm0,14.91a6.64,6.64,0,1,1,6.64-6.64A6.64,6.64,0,0,1,100.19,14.91Z" transform="translate(-4.3)"/></g></g></g></g></svg>