<svg xmlns="http://www.w3.org/2000/svg" viewBox="0 0 229.53 302.64"><defs><style>.cls-1{fill:#53b0d1;}.cls-2{fill:#65d6ff;}</style></defs><g id="Calque_2" data-name="Calque 2"><g id="Calque_1-2" data-name="Calque 1"><path class="cls-1" d="M180.09,300.14a240.2,240.2,0,0,1-74.47-11.82l-.28-.09-69.22-5.52h0a51.55,51.55,0,0,1-15.33-8.31A46.37,46.37,0,0,1,3.44,242.58l-.8-7.9a27.32,27.32,0,0,1,1.91-13.17c5.06-12.18,7.86-40.2,7.32-49.57s-2.24-34-2.41-36.31v-.17l0-.17c-.05-.22-.09-.45-.12-.67A95.15,95.15,0,0,1,30.17,58.43l9-10.83a124.81,124.81,0,0,1,96.2-45.1H227V300.1l-46.9,0Z"/><path class="cls-2" d="M135.37,5h89.16V297.6l-44.39,0h-.06A237.59,237.59,0,0,1,106.4,286l-.57-.19-.59,0-68.6-5.48a48.94,48.94,0,0,1-14.31-7.8A43.93,43.93,0,0,1,5.92,242.32l-.79-7.9a24.82,24.82,0,0,1,1.72-11.94c5.2-12.49,8.06-41.12,7.52-50.68S12.13,137.93,12,135.46l0-.35-.07-.35a4,4,0,0,1-.09-.5v-.09A92.6,92.6,0,0,1,32.09,60l9-10.83A122.33,122.33,0,0,1,135.37,5m0-5A127.64,127.64,0,0,0,37.25,46l-9,10.83A97.58,97.58,0,0,0,6.82,135q.06.42.15.84c.17,2.39,1.88,27,2.41,36.27s-2.38,37-7.14,48.48A29.66,29.66,0,0,0,.16,234.93L1,242.82a48.68,48.68,0,0,0,18.28,33.54,54.16,54.16,0,0,0,16.13,8.73l.29.09,69.2,5.52a243,243,0,0,0,75.23,11.94h.06l49.39,0V0H135.37Z"/></g></g></svg>