<svg xmlns="http://www.w3.org/2000/svg" viewBox="0 0 305.22 454.91"><defs><style>.cls-1{fill:#d1dfbc;}.cls-2{fill:#e9ffd6;}</style></defs><g id="Calque_2" data-name="Calque 2"><g id="Calque_1-2" data-name="Calque 1"><path class="cls-1" d="M2.5,2.5H116.73a128.33,128.33,0,0,1,89.2,35.84l16.39,15.71a163.08,163.08,0,0,1,50,107.76l1.15,18.3a149.16,149.16,0,0,1-7,55.73l-1.37,4.25a148.77,148.77,0,0,0-5.66,67L264,338.22a187.16,187.16,0,0,0,9.51,37.5l28.15,76.64L2.5,452.41Z"/><path class="cls-2" d="M116.74,5A125.82,125.82,0,0,1,204.2,40.15l16.39,15.71A160.61,160.61,0,0,1,269.86,162L271,180.27a146.81,146.81,0,0,1-6.91,54.81l-1.37,4.24A151.31,151.31,0,0,0,257,307.43l4.53,31.15a190,190,0,0,0,9.65,38l26.91,73.28L5,449.91V5H116.74m0-5H0V454.91l305.22-.05-29.38-80a184.57,184.57,0,0,1-9.39-37l-4.53-31.15a145.51,145.51,0,0,1,5.57-65.85l1.37-4.25A152.41,152.41,0,0,0,276,180l-1.15-18.3a166,166,0,0,0-50.8-109.4L207.66,36.54A131.39,131.39,0,0,0,116.74,0Z"/></g></g></svg>